<?xml version="1.0" encoding="UTF-8" standalone="no"?><svg xmlns="http://www.w3.org/2000/svg" xmlns:xlink="http://www.w3.org/1999/xlink" contentScriptType="application/ecmascript" contentStyleType="text/css" height="625px" preserveAspectRatio="none" style="width:695px;height:625px;background:#FFFFFF;" version="1.1" viewBox="0 0 695 625" width="695px" zoomAndPan="magnify"><defs><filter height="300%" id="fq3stn35p0cwy" width="300%" x="-1" y="-1"><feGaussianBlur result="blurOut" stdDeviation="2.0"/><feColorMatrix in="blurOut" result="blurOut2" type="matrix" values="0 0 0 0 0 0 0 0 0 0 0 0 0 0 0 0 0 0 .4 0"/><feOffset dx="4.0" dy="4.0" in="blurOut2" result="blurOut3"/><feBlend in="SourceGraphic" in2="blurOut3" mode="normal"/></filter></defs><g><!--MD5=[4d37e22c479252f84322b69c3188eaa0]
cluster ConsUML architecture--><polygon fill="#FFFFFF" filter="url(#fq3stn35p0cwy)" points="16,16,26,6,412,6,412,416,402,426,16,426,16,16" style="stroke:#000000;stroke-width:1.5;"/><line style="stroke:#000000;stroke-width:1.5;" x1="402" x2="412" y1="16" y2="6"/><line style="stroke:#000000;stroke-width:1.5;" x1="16" x2="402" y1="16" y2="16"/><line style="stroke:#000000;stroke-width:1.5;" x1="402" x2="402" y1="16" y2="426"/><text fill="#000000" font-family="sans-serif" font-size="14" font-weight="bold" lengthAdjust="spacing" textLength="175" x="122.5" y="31.9951">ConsUML architecture</text><path d="M61.1997,462.8943 C64.3138,457.5589 68.9132,457.1939 72.8985,461.877 C75.9339,457.3155 79.6337,456.64 83.0818,461.4274 C85.9687,456.4124 89.8115,456.0909 93.5265,460.5107 C97.0234,454.9584 102.448,454.1191 106.1374,460.304 C108.535,455.2616 111.9832,454.1398 115.8487,458.8409 C119.3673,452.5025 123.0882,453.0051 127.5034,457.9117 C129.9354,452.3429 134.4066,451.9872 138.0476,456.668 C141.4586,451.6154 146.5704,452.4268 148.6337,458.0094 C152.8804,453.3663 157.2094,454.1084 159.8945,459.7237 C163.1412,453.4755 168.5092,453.2418 172.6569,458.7452 C177.7666,453.4198 181.617,454.3451 183.9329,461.3087 C186.6228,456.916 190.331,455.944 193.6859,460.5912 C198.349,454.7346 203.6191,457.5467 205.7341,463.2475 C208.7892,458.6082 212.9518,458.6639 215.9292,463.3327 C223.7128,466.9875 223.7768,472.2395 218.5372,478.1816 C226.9112,482.3259 227.6718,488.8532 220.6996,494.9738 C227.8591,501.1416 225.6359,506.8242 218.0265,510.4393 C224.3512,515.8174 223.1997,521.0743 216.6264,525.2315 C213.6733,531.1421 208.0414,530.7548 204.4717,525.9298 C202.3623,531.7719 197.6942,531.7004 194.3886,527.0829 C190.4703,532.0796 186.2802,532.5737 183.1421,526.304 C180.1141,531.9638 176.0483,532.2007 172.0768,527.2918 C168.75,532.7448 165.2257,533.6277 160.7751,528.4912 C156.7248,532.9177 153.2814,533.7006 150.1482,527.5682 C147.6899,533.1306 142.4718,532.3449 139.6647,527.9348 C136.5105,533.6456 131.9782,533.7401 128.4634,528.2969 C124.9481,534.6594 119.1382,534.2756 115.7688,528.1487 C111.9108,532.7848 108.2141,532.4918 105.2083,527.2386 C100.7328,531.9995 97.3113,531.9015 94.577,525.5699 C91.447,531.5201 86.6222,531.309 82.8846,526.2131 C79.8971,529.911 75.2992,529.403 73.2005,525.133 C69.4388,529.7461 65.069,530.4706 61.5849,524.8188 C52.603,522.5907 50.9703,515.387 58.0191,509.4416 C49.816,505.4562 48.7734,499.4233 56.6945,494.0503 C49.3729,488.2308 51.9733,481.6157 59.296,478.1997 C53.0763,472.2309 52.9028,467.0575 61.1997,462.8943 " fill="#FFFFFF" filter="url(#fq3stn35p0cwy)" style="stroke:#000000;stroke-width:1.5;"/><path d="M328.6077,462.8391 C331.3004,456.5945 336.9172,455.6985 341.0486,461.3322 C345.4246,455.7404 349.1812,456.7869 353.129,461.8191 C356.5577,456.3097 362.1774,454.9224 365.9875,461.4104 C368.42,455.8791 374.1638,455.086 377.9817,459.7863 C381.6379,454.8732 385.571,454.8192 389.3713,459.6173 C392.2246,453.185 396.0982,452.8459 400.5997,458.0231 C404.0964,451.9787 409.4022,449.7248 414.2446,456.602 C418.3806,451.6851 421.9973,452.5693 425.1861,457.6398 C428.9415,451.5577 433.917,451.558 437.4199,457.8887 C442.4758,452.8022 447.3773,453.4685 450.6385,459.9411 C454.9264,454.5135 459.1864,453.5837 462.9123,460.4999 C466.721,455.085 471.6258,456.3775 474.0282,461.9257 C477.921,455.0033 482.1581,454.9738 486.6483,461.3593 C490.7719,456.3678 495.9851,457.5606 498.0115,463.5329 C505.8469,467.7405 505.8711,472.8606 499.7163,478.6463 C507.5521,481.4458 507.4505,488.5269 502.1645,493.4905 C510.4668,499.9997 509.0257,506.8079 499.5726,510.6324 C505.3537,515.4042 504.4759,521.618 497.1727,524.0494 C494.6386,529.3571 490.0914,530.2413 486.365,525.3076 C483.5636,531.5192 479.1818,532.817 474.7016,526.9254 C470.3985,532.9315 466.3679,533.5742 461.4093,527.6562 C458.5597,533.1689 452.8314,533.8362 449.0381,528.7586 C445.5714,534.4 442.3684,533.8059 438.4649,529.2097 C433.7456,536.0761 428.4777,534.4618 424.899,528.0447 C422.2125,533.9554 417.3732,535.7889 412.9234,529.8226 C409.8267,534.8712 405.4191,533.991 402.404,529.7304 C396.68,536.4409 391.9335,534.317 388.6789,527.2673 C385.4162,532.9146 381.9419,533.7033 377.8841,528.0253 C373.5843,534.0791 369.0739,532.2847 365.8022,526.9359 C362.072,531.8917 355.8467,532.5977 353.3477,525.648 C349.8558,530.1733 345.3983,530.4896 342.1706,525.3427 C338.8321,531.4539 332.4437,531.4308 328.4709,526.1024 C319.0767,523.843 318.4023,517.0514 323.4746,510.2364 C313.5537,507.1715 311.6991,501.0395 319.2281,493.5372 C313.5822,487.7124 315.5564,481.466 323.3677,479.6536 C315.8925,472.2174 319.2536,465.0307 328.6077,462.8391 " fill="#FFFFFF" filter="url(#fq3stn35p0cwy)" style="stroke:#000000;stroke-width:1.5;"/><!--MD5=[b3497390027415c156d4a81b339e8bf1]
entity UI(index.html)--><rect fill="#FEFECE" filter="url(#fq3stn35p0cwy)" height="46.2969" style="stroke:#A80036;stroke-width:1.5;" width="134" x="179" y="46"/><rect fill="#FEFECE" height="10" style="stroke:#A80036;stroke-width:1.5;" width="15" x="293" y="51"/><rect fill="#FEFECE" height="2" style="stroke:#A80036;stroke-width:1.5;" width="4" x="291" y="53"/><rect fill="#FEFECE" height="2" style="stroke:#A80036;stroke-width:1.5;" width="4" x="291" y="57"/><text fill="#000000" font-family="sans-serif" font-size="14" lengthAdjust="spacing" textLength="94" x="194" y="78.9951">UI(index.html)</text><!--MD5=[5bab31b8118b8c8cff0440c347387734]
entity API1--><ellipse cx="246" cy="175" fill="#FEFECE" filter="url(#fq3stn35p0cwy)" rx="8" ry="8" style="stroke:#A80036;stroke-width:1.5;"/><text fill="#000000" font-family="sans-serif" font-size="14" lengthAdjust="spacing" textLength="30" x="231" y="204.9951">API1</text><!--MD5=[2346c01514f7a7655b1ba910ad4473b7]
entity server.js--><rect fill="#008000" filter="url(#fq3stn35p0cwy)" height="46.2969" style="stroke:#A80036;stroke-width:1.5;" width="98" x="290" y="152"/><rect fill="#008000" height="10" style="stroke:#A80036;stroke-width:1.5;" width="15" x="368" y="157"/><rect fill="#008000" height="2" style="stroke:#A80036;stroke-width:1.5;" width="4" x="366" y="159"/><rect fill="#008000" height="2" style="stroke:#A80036;stroke-width:1.5;" width="4" x="366" y="163"/><text fill="#000000" font-family="sans-serif" font-size="14" lengthAdjust="spacing" textLength="58" x="305" y="184.9951">server.js</text><!--MD5=[901b9473dfcac970bb81472f0ddc6788]
entity consuml.js--><rect fill="#FEFECE" filter="url(#fq3stn35p0cwy)" height="46.2969" style="stroke:#A80036;stroke-width:1.5;" width="114" x="217" y="258"/><rect fill="#FEFECE" height="10" style="stroke:#A80036;stroke-width:1.5;" width="15" x="311" y="263"/><rect fill="#FEFECE" height="2" style="stroke:#A80036;stroke-width:1.5;" width="4" x="309" y="265"/><rect fill="#FEFECE" height="2" style="stroke:#A80036;stroke-width:1.5;" width="4" x="309" y="269"/><text fill="#000000" font-family="sans-serif" font-size="14" lengthAdjust="spacing" textLength="74" x="232" y="290.9951">consuml.js</text><!--MD5=[a4acf8501414b79d9d2eb19e0ed66818]
entity puller.js--><rect fill="#FEFECE" filter="url(#fq3stn35p0cwy)" height="46.2969" style="stroke:#A80036;stroke-width:1.5;" width="93" x="31.5" y="364"/><rect fill="#FEFECE" height="10" style="stroke:#A80036;stroke-width:1.5;" width="15" x="104.5" y="369"/><rect fill="#FEFECE" height="2" style="stroke:#A80036;stroke-width:1.5;" width="4" x="102.5" y="371"/><rect fill="#FEFECE" height="2" style="stroke:#A80036;stroke-width:1.5;" width="4" x="102.5" y="375"/><text fill="#000000" font-family="sans-serif" font-size="14" lengthAdjust="spacing" textLength="53" x="46.5" y="396.9951">puller.js</text><!--MD5=[b2d3eab5d0ecac4705e9eca381624c34]
entity parser.js--><rect fill="#FEFECE" filter="url(#fq3stn35p0cwy)" height="46.2969" style="stroke:#A80036;stroke-width:1.5;" width="99" x="159.5" y="364"/><rect fill="#FEFECE" height="10" style="stroke:#A80036;stroke-width:1.5;" width="15" x="238.5" y="369"/><rect fill="#FEFECE" height="2" style="stroke:#A80036;stroke-width:1.5;" width="4" x="236.5" y="371"/><rect fill="#FEFECE" height="2" style="stroke:#A80036;stroke-width:1.5;" width="4" x="236.5" y="375"/><text fill="#000000" font-family="sans-serif" font-size="14" lengthAdjust="spacing" textLength="59" x="174.5" y="396.9951">parser.js</text><!--MD5=[0829afb746264dd5187a48810d6d8ac7]
entity drawer.js--><rect fill="#FEFECE" filter="url(#fq3stn35p0cwy)" height="46.2969" style="stroke:#A80036;stroke-width:1.5;" width="102" x="294" y="364"/><rect fill="#FEFECE" height="10" style="stroke:#A80036;stroke-width:1.5;" width="15" x="376" y="369"/><rect fill="#FEFECE" height="2" style="stroke:#A80036;stroke-width:1.5;" width="4" x="374" y="371"/><rect fill="#FEFECE" height="2" style="stroke:#A80036;stroke-width:1.5;" width="4" x="374" y="375"/><text fill="#000000" font-family="sans-serif" font-size="14" lengthAdjust="spacing" textLength="62" x="309" y="396.9951">drawer.js</text><!--MD5=[abce0ee6227efc568d3abac2b50afebe]
entity config.js--><rect fill="#FEFECE" filter="url(#fq3stn35p0cwy)" height="46.2969" style="stroke:#A80036;stroke-width:1.5;" width="97" x="41.5" y="46"/><rect fill="#FEFECE" height="10" style="stroke:#A80036;stroke-width:1.5;" width="15" x="118.5" y="51"/><rect fill="#FEFECE" height="2" style="stroke:#A80036;stroke-width:1.5;" width="4" x="116.5" y="53"/><rect fill="#FEFECE" height="2" style="stroke:#A80036;stroke-width:1.5;" width="4" x="116.5" y="57"/><text fill="#000000" font-family="sans-serif" font-size="14" lengthAdjust="spacing" textLength="57" x="56.5" y="78.9951">config.js</text><!--MD5=[b1ccc3328efc5a6069cb8461c4a4c62c]
entity consul--><rect fill="#008000" filter="url(#fq3stn35p0cwy)" height="46.2969" style="stroke:#A80036;stroke-width:1.5;" width="86" x="121" y="470"/><rect fill="#008000" height="10" style="stroke:#A80036;stroke-width:1.5;" width="15" x="187" y="475"/><rect fill="#008000" height="2" style="stroke:#A80036;stroke-width:1.5;" width="4" x="185" y="477"/><rect fill="#008000" height="2" style="stroke:#A80036;stroke-width:1.5;" width="4" x="185" y="481"/><text fill="#000000" font-family="sans-serif" font-size="14" lengthAdjust="spacing" textLength="46" x="136" y="502.9951">consul</text><!--MD5=[a66cf04e2ad9efabc28f300b4d9e7438]
entity API2--><ellipse cx="77" cy="493" fill="#FEFECE" filter="url(#fq3stn35p0cwy)" rx="8" ry="8" style="stroke:#A80036;stroke-width:1.5;"/><text fill="#000000" font-family="sans-serif" font-size="14" lengthAdjust="spacing" textLength="30" x="62" y="522.9951">API2</text><!--MD5=[f34abdc907f3da33f3fd0e2cc8b4f06b]
entity plantuml--><rect fill="#008000" filter="url(#fq3stn35p0cwy)" height="46.2969" style="stroke:#A80036;stroke-width:1.5;" width="99" x="389.5" y="470"/><rect fill="#008000" height="10" style="stroke:#A80036;stroke-width:1.5;" width="15" x="468.5" y="475"/><rect fill="#008000" height="2" style="stroke:#A80036;stroke-width:1.5;" width="4" x="466.5" y="477"/><rect fill="#008000" height="2" style="stroke:#A80036;stroke-width:1.5;" width="4" x="466.5" y="481"/><text fill="#000000" font-family="sans-serif" font-size="14" lengthAdjust="spacing" textLength="59" x="404.5" y="502.9951">plantuml</text><!--MD5=[98974da6efbf96758852716194ad0935]
entity API3--><ellipse cx="345" cy="493" fill="#FEFECE" filter="url(#fq3stn35p0cwy)" rx="8" ry="8" style="stroke:#A80036;stroke-width:1.5;"/><text fill="#000000" font-family="sans-serif" font-size="14" lengthAdjust="spacing" textLength="30" x="330" y="522.9951">API3</text><path d="M428,155 L428,171 L388.39,175 L428,179 L428,195.2656 A0,0 0 0 0 428,195.2656 L686,195.2656 A0,0 0 0 0 686,195.2656 L686,165 L676,155 L428,155 A0,0 0 0 0 428,155 " fill="#FBFB77" filter="url(#fq3stn35p0cwy)" style="stroke:#A80036;stroke-width:1.0;"/><path d="M676,155 L676,165 L686,165 L676,155 " fill="#FBFB77" style="stroke:#A80036;stroke-width:1.0;"/><text fill="#000000" font-family="sans-serif" font-size="13" lengthAdjust="spacing" textLength="210" x="434" y="172.0669">REST server default on port 3000</text><text fill="#000000" font-family="sans-serif" font-size="13" lengthAdjust="spacing" textLength="237" x="434" y="187.1997">display service status in uml diagram</text><path d="M57,576 L57,616.2656 A0,0 0 0 0 57,616.2656 L269,616.2656 A0,0 0 0 0 269,616.2656 L269,586 L259,576 L167.19,576 L163.78,516.42 L159.19,576 L57,576 A0,0 0 0 0 57,576 " fill="#FBFB77" filter="url(#fq3stn35p0cwy)" style="stroke:#A80036;stroke-width:1.0;"/><path d="M259,576 L259,586 L269,586 L259,576 " fill="#FBFB77" style="stroke:#A80036;stroke-width:1.0;"/><text fill="#000000" font-family="sans-serif" font-size="13" lengthAdjust="spacing" textLength="105" x="63" y="593.0669">External service,</text><text fill="#000000" font-family="sans-serif" font-size="13" lengthAdjust="spacing" textLength="191" x="63" y="608.1997">provides health check metrics</text><path d="M304.5,576 L304.5,616.2656 A0,0 0 0 0 304.5,616.2656 L573.5,616.2656 A0,0 0 0 0 573.5,616.2656 L573.5,586 L563.5,576 L443,576 L439,516.42 L435,576 L304.5,576 A0,0 0 0 0 304.5,576 " fill="#FBFB77" filter="url(#fq3stn35p0cwy)" style="stroke:#A80036;stroke-width:1.0;"/><path d="M563.5,576 L563.5,586 L573.5,586 L563.5,576 " fill="#FBFB77" style="stroke:#A80036;stroke-width:1.0;"/><text fill="#000000" font-family="sans-serif" font-size="13" lengthAdjust="spacing" textLength="105" x="310.5" y="593.0669">External service,</text><text fill="#000000" font-family="sans-serif" font-size="13" lengthAdjust="spacing" textLength="248" x="310.5" y="608.1997">to generate uml diagram in svg format</text><!--MD5=[d37e4dc9f18da7bce221dd4e06b5c032]
link UI(index.html) to API1--><path d="M246,92.06 C246,112.84 246,143.31 246,160.64 " fill="none" id="UI(index.html)-to-API1" style="stroke:#A80036;stroke-width:1.0;"/><polygon fill="#A80036" points="246,165.98,250,156.98,246,160.98,242,156.98,246,165.98" style="stroke:#A80036;stroke-width:1.0;"/><!--MD5=[5891952dc0707bc2a1f626b1bcc415b5]
link API1 to server.js--><path d="M255.08,175 C266.66,175 278.25,175 289.83,175 " fill="none" id="API1-server.js" style="stroke:#A80036;stroke-width:1.0;"/><!--MD5=[a52ace3aac2e0fb91553eac256fed121]
link server.js to consuml.js--><path d="M325.22,198.06 C315.05,214.33 301.17,236.53 290.42,253.72 " fill="none" id="server.js-to-consuml.js" style="stroke:#A80036;stroke-width:1.0;"/><polygon fill="#A80036" points="287.76,257.98,295.9136,252.4557,290.4036,253.736,289.1232,248.2259,287.76,257.98" style="stroke:#A80036;stroke-width:1.0;"/><!--MD5=[c453216fbc594e581afbac7c9d734913]
link consuml.js to puller.js--><path d="M232.43,304.06 C200.73,320.88 157.08,344.04 124.27,361.45 " fill="none" id="consuml.js-to-puller.js" style="stroke:#A80036;stroke-width:1.0;"/><polygon fill="#A80036" points="119.51,363.98,129.3349,363.2939,123.9265,361.636,125.5845,356.2275,119.51,363.98" style="stroke:#A80036;stroke-width:1.0;"/><!--MD5=[7adab102bf303077e3870e6e654d02ec]
link consuml.js to parser.js--><path d="M260.22,304.06 C250.05,320.33 236.17,342.53 225.42,359.72 " fill="none" id="consuml.js-to-parser.js" style="stroke:#A80036;stroke-width:1.0;"/><polygon fill="#A80036" points="222.76,363.98,230.9136,358.4557,225.4036,359.736,224.1232,354.2259,222.76,363.98" style="stroke:#A80036;stroke-width:1.0;"/><!--MD5=[929d88086aa265c3be8900b910fd8cf5]
link consuml.js to drawer.js--><path d="M289.06,304.06 C300.16,320.33 315.32,342.53 327.06,359.72 " fill="none" id="consuml.js-to-drawer.js" style="stroke:#A80036;stroke-width:1.0;"/><polygon fill="#A80036" points="329.96,363.98,328.1959,354.2904,327.1438,359.8486,321.5856,358.7964,329.96,363.98" style="stroke:#A80036;stroke-width:1.0;"/><!--MD5=[251ed176b4372ae076e5e2e0bc65da4c]
link API2 to consul--><path d="M86.18,493 C97.73,493 109.28,493 120.83,493 " fill="none" id="API2-consul" style="stroke:#A80036;stroke-width:1.0;"/><!--MD5=[34d9b4e0c7296c3a9e67e9657aa2f0fe]
link API3 to plantuml--><path d="M354.18,493 C365.89,493 377.59,493 389.3,493 " fill="none" id="API3-plantuml" style="stroke:#A80036;stroke-width:1.0;"/><!--MD5=[ce5a67fbe08ee1a7ae93c4b3450476c1]
link drawer.js to API3--><path d="M345,410.06 C345,430.84 345,461.31 345,478.64 " fill="none" id="drawer.js-to-API3" style="stroke:#A80036;stroke-width:1.0;"/><polygon fill="#A80036" points="345,483.98,349,474.98,345,478.98,341,474.98,345,483.98" style="stroke:#A80036;stroke-width:1.0;"/><!--MD5=[5e86b2cd7095bbbdf777998252591095]
link puller.js to API2--><path d="M77.79,410.06 C77.59,430.84 77.3,461.31 77.13,478.64 " fill="none" id="puller.js-to-API2" style="stroke:#A80036;stroke-width:1.0;"/><polygon fill="#A80036" points="77.08,483.98,81.1826,475.0263,77.1371,478.9803,73.1831,474.9349,77.08,483.98" style="stroke:#A80036;stroke-width:1.0;"/><!--MD5=[92acb5fcc38ceb6e55f23e467cccb055]
@startuml
node "ConsUML architecture" {
     [UI(index.html)] - -> API1
  API1 - [server.js]
  [server.js] - -> [consuml.js]
  [consuml.js] - -> [puller.js]
  [consuml.js] - -> [parser.js]
  [consuml.js] - -> [drawer.js]
[config.js]
}

cloud {
 [consul (external server)] as consul
 API2 - consul
}
cloud {
 [plantuml (external server)] as plantuml
 API3 - plantuml
}

[drawer.js]- ->API3
[puller.js]- ->API2

[server.js] #Green
[consul] #Green
[plantuml] #Green

note right of server.js 
REST server default on port 3000
display service status in uml diagram
end note
note bottom of consul
 External service, 
 provides health check metrics
 end note

note bottom of plantuml
External service, 
to generate uml diagram in svg format
end note
@enduml

PlantUML version 1.2021.7(Sun May 23 12:40:07 UTC 2021)
(GPL source distribution)
Java Runtime: OpenJDK Runtime Environment
JVM: OpenJDK 64-Bit Server VM
Default Encoding: UTF-8
Language: en
Country: null
--></g></svg>