<?xml version="1.0" encoding="UTF-8" standalone="no"?><svg xmlns="http://www.w3.org/2000/svg" xmlns:xlink="http://www.w3.org/1999/xlink" contentScriptType="application/ecmascript" contentStyleType="text/css" height="483px" preserveAspectRatio="none" style="width:321px;height:483px;background:#FFFFFF;" version="1.1" viewBox="0 0 321 483" width="321px" zoomAndPan="magnify"><defs><filter height="300%" id="f7yuoysx4julv" width="300%" x="-1" y="-1"><feGaussianBlur result="blurOut" stdDeviation="2.0"/><feColorMatrix in="blurOut" result="blurOut2" type="matrix" values="0 0 0 0 0 0 0 0 0 0 0 0 0 0 0 0 0 0 .4 0"/><feOffset dx="4.0" dy="4.0" in="blurOut2" result="blurOut3"/><feBlend in="SourceGraphic" in2="blurOut3" mode="normal"/></filter></defs><g><!--MD5=[47c14c564e796a575e671c2b0469a7bb]
cluster backend--><polygon fill="#FFFFFF" filter="url(#f7yuoysx4julv)" points="16,83,26,73,304,73,304,377,294,387,16,387,16,83" style="stroke:#000000;stroke-width:1.5;"/><line style="stroke:#000000;stroke-width:1.5;" x1="294" x2="304" y1="83" y2="73"/><line style="stroke:#000000;stroke-width:1.5;" x1="16" x2="294" y1="83" y2="83"/><line style="stroke:#000000;stroke-width:1.5;" x1="294" x2="294" y1="83" y2="387"/><text fill="#000000" font-family="sans-serif" font-size="14" font-weight="bold" lengthAdjust="spacing" textLength="67" x="122.5" y="98.9951">backend</text><!--MD5=[10829904833502525fc5af4c50568956]
entity load-balancer--><rect fill="#FEFECE" filter="url(#f7yuoysx4julv)" height="46.2969" style="stroke:#A80036;stroke-width:1.5;" width="133" x="93.5" y="113"/><rect fill="#FEFECE" height="10" style="stroke:#A80036;stroke-width:1.5;" width="15" x="206.5" y="118"/><rect fill="#FEFECE" height="2" style="stroke:#A80036;stroke-width:1.5;" width="4" x="204.5" y="120"/><rect fill="#FEFECE" height="2" style="stroke:#A80036;stroke-width:1.5;" width="4" x="204.5" y="124"/><text fill="#000000" font-family="sans-serif" font-size="14" lengthAdjust="spacing" textLength="93" x="108.5" y="145.9951">load-balancer</text><!--MD5=[8621ba2602f779751e7566fca96cbfb2]
entity tomcat-01--><rect fill="#FEFECE" filter="url(#f7yuoysx4julv)" height="46.2969" style="stroke:#A80036;stroke-width:1.5;" width="111" x="31.5" y="219"/><rect fill="#FEFECE" height="10" style="stroke:#A80036;stroke-width:1.5;" width="15" x="122.5" y="224"/><rect fill="#FEFECE" height="2" style="stroke:#A80036;stroke-width:1.5;" width="4" x="120.5" y="226"/><rect fill="#FEFECE" height="2" style="stroke:#A80036;stroke-width:1.5;" width="4" x="120.5" y="230"/><text fill="#000000" font-family="sans-serif" font-size="14" lengthAdjust="spacing" textLength="71" x="46.5" y="251.9951">tomcat-01</text><!--MD5=[db01423d1ac61d68f79e368b007e0cad]
entity tomcat-02--><rect fill="#FF0000" filter="url(#f7yuoysx4julv)" height="46.2969" style="stroke:#A80036;stroke-width:1.5;" width="111" x="177.5" y="219"/><rect fill="#FF0000" height="10" style="stroke:#A80036;stroke-width:1.5;" width="15" x="268.5" y="224"/><rect fill="#FF0000" height="2" style="stroke:#A80036;stroke-width:1.5;" width="4" x="266.5" y="226"/><rect fill="#FF0000" height="2" style="stroke:#A80036;stroke-width:1.5;" width="4" x="266.5" y="230"/><text fill="#000000" font-family="sans-serif" font-size="14" lengthAdjust="spacing" textLength="71" x="192.5" y="251.9951">tomcat-02</text><!--MD5=[f06a0a56fcbd5653321395ec33abd44b]
entity pgbouncer--><rect fill="#FEFECE" filter="url(#f7yuoysx4julv)" height="46.2969" style="stroke:#A80036;stroke-width:1.5;" width="116" x="102" y="325"/><rect fill="#FEFECE" height="10" style="stroke:#A80036;stroke-width:1.5;" width="15" x="198" y="330"/><rect fill="#FEFECE" height="2" style="stroke:#A80036;stroke-width:1.5;" width="4" x="196" y="332"/><rect fill="#FEFECE" height="2" style="stroke:#A80036;stroke-width:1.5;" width="4" x="196" y="336"/><text fill="#000000" font-family="sans-serif" font-size="14" lengthAdjust="spacing" textLength="76" x="117" y="357.9951">pgbouncer</text><!--MD5=[719323737c37fd5f5ac4ed61ddce1072]
entity postgresql--><path d="M113,441 C113,431 160,431 160,431 C160,431 207,431 207,441 L207,466.2969 C207,476.2969 160,476.2969 160,476.2969 C160,476.2969 113,476.2969 113,466.2969 L113,441 " fill="#FFFFFF" filter="url(#f7yuoysx4julv)" style="stroke:#000000;stroke-width:1.5;"/><path d="M113,441 C113,451 160,451 160,451 C160,451 207,451 207,441 " fill="none" style="stroke:#000000;stroke-width:1.5;"/><text fill="#000000" font-family="sans-serif" font-size="14" lengthAdjust="spacing" textLength="74" x="123" y="467.9951">postgresql</text><!--MD5=[ed9702f7e4f8c03b92d9e03bb4685cf3]
entity apache--><rect fill="#FEFECE" filter="url(#f7yuoysx4julv)" height="46.2969" style="stroke:#A80036;stroke-width:1.5;" width="91" x="114.5" y="7"/><rect fill="#FEFECE" height="10" style="stroke:#A80036;stroke-width:1.5;" width="15" x="185.5" y="12"/><rect fill="#FEFECE" height="2" style="stroke:#A80036;stroke-width:1.5;" width="4" x="183.5" y="14"/><rect fill="#FEFECE" height="2" style="stroke:#A80036;stroke-width:1.5;" width="4" x="183.5" y="18"/><text fill="#000000" font-family="sans-serif" font-size="14" lengthAdjust="spacing" textLength="51" x="129.5" y="39.9951">apache</text><!--MD5=[1c9dbb65db9d2f6bb704beced4448a2c]
link apache to load-balancer--><path d="M160,53.06 C160,69.05 160,90.78 160,107.84 " fill="none" id="apache-to-load-balancer" style="stroke:#A80036;stroke-width:1.0;"/><polygon fill="#A80036" points="160,112.98,164,103.98,160,107.98,156,103.98,160,112.98" style="stroke:#A80036;stroke-width:1.0;"/><!--MD5=[27f8f4ab6e9868266538af6aace6b6e7]
link load-balancer to tomcat-01--><path d="M144.52,159.06 C133.1,175.33 117.51,197.53 105.45,214.72 " fill="none" id="load-balancer-to-tomcat-01" style="stroke:#A80036;stroke-width:1.0;"/><polygon fill="#A80036" points="102.46,218.98,110.9076,213.9166,105.335,214.8892,104.3624,209.3166,102.46,218.98" style="stroke:#A80036;stroke-width:1.0;"/><!--MD5=[d8d46a0642e3e243c9ea02d2357dd4fc]
link load-balancer to tomcat-02--><path d="M175.48,159.06 C186.9,175.33 202.49,197.53 214.55,214.72 " fill="none" id="load-balancer-to-tomcat-02" style="stroke:#A80036;stroke-width:1.0;"/><polygon fill="#A80036" points="217.54,218.98,215.6376,209.3166,214.665,214.8892,209.0924,213.9166,217.54,218.98" style="stroke:#A80036;stroke-width:1.0;"/><!--MD5=[c1509a4d25ff0108a27a59e70c3890a5]
link tomcat-01 to pgbouncer--><path d="M102.48,265.06 C113.9,281.33 129.49,303.53 141.55,320.72 " fill="none" id="tomcat-01-to-pgbouncer" style="stroke:#A80036;stroke-width:1.0;"/><polygon fill="#A80036" points="144.54,324.98,142.6376,315.3166,141.665,320.8892,136.0924,319.9166,144.54,324.98" style="stroke:#A80036;stroke-width:1.0;"/><!--MD5=[9fc591fb8af3d556f503cb5e01360567]
link tomcat-02 to pgbouncer--><path d="M217.52,265.06 C206.1,281.33 190.51,303.53 178.45,320.72 " fill="none" id="tomcat-02-to-pgbouncer" style="stroke:#A80036;stroke-width:1.0;"/><polygon fill="#A80036" points="175.46,324.98,183.9076,319.9166,178.335,320.8892,177.3624,315.3166,175.46,324.98" style="stroke:#A80036;stroke-width:1.0;"/><!--MD5=[ecb6d200e30107a5ae9bb84f84ccfad0]
link pgbouncer to postgresql--><path d="M160,371.2 C160,387.14 160,408.69 160,425.6 " fill="none" id="pgbouncer-to-postgresql" style="stroke:#A80036;stroke-width:1.0;"/><polygon fill="#A80036" points="160,430.69,164,421.69,160,425.69,156,421.69,160,430.69" style="stroke:#A80036;stroke-width:1.0;"/><!--MD5=[6710f8e6a1b01bddd3b8a8d739350d68]
@startuml
node "backend" {
  [load-balancer] 
  [tomcat-01]
  [tomcat-02]
  [pgbouncer]
}







database postgresql {
 
}

[apache] - -> [load-balancer]
 [load-balancer] - -> [tomcat-01]

 [load-balancer] - -> [tomcat-02]
[tomcat-01] - -> [pgbouncer]
[tomcat-02] - -> [pgbouncer]
[pgbouncer] - -> postgresql

[tomcat-02] #Red
@enduml

PlantUML version 1.2021.7(Sun May 23 12:40:07 UTC 2021)
(GPL source distribution)
Java Runtime: OpenJDK Runtime Environment
JVM: OpenJDK 64-Bit Server VM
Default Encoding: UTF-8
Language: en
Country: null
--></g></svg>